<?xml version="1.0"?>
<svg xmlns="http://www.w3.org/2000/svg" xmlns:xlink="http://www.w3.org/1999/xlink" xmlns:svgjs="http://svgjs.com/svgjs" version="1.1" width="512" height="512" x="0" y="0" viewBox="0 0 512 512" style="enable-background:new 0 0 512 512" xml:space="preserve" class=""><g><path xmlns="http://www.w3.org/2000/svg" d="m186 512c-28.949219 0-52.5-23.550781-52.5-52.5s23.550781-52.5 52.5-52.5v30c-12.40625 0-22.5 10.09375-22.5 22.5s10.09375 22.5 22.5 22.5zm0 0" fill="#48484a" data-original="#4be3f0" style="" class=""/><path xmlns="http://www.w3.org/2000/svg" d="m421.507812 86.496094c-14.296874-50.789063-60.652343-86.496094-114.507812-86.496094-18.171875 0-35.480469 4.078125-51 11.417969l-60 137.792969 60 137.789062h155.5c55.414062 0 100.5-45.085938 100.5-100.5 0-52.035156-39.757812-94.964844-90.492188-100.003906zm0 0" fill="#48484a" data-original="#a38b83" style="" class=""/><path xmlns="http://www.w3.org/2000/svg" d="m192.492188 86.496094c-50.734376 5.039062-90.492188 47.96875-90.492188 100.003906l154 100.5v-275.582031c-30.480469 14.40625-54.035156 41.425781-63.507812 75.078125zm0 0" fill="#48484a" data-original="#b29b94" style="" class=""/><path xmlns="http://www.w3.org/2000/svg" d="m266.085938 117.59375c-2.445313-8.011719-5.863282-15.554688-10.085938-22.519531l-30 95.960937 30 95.964844c46.867188 0 85-38.132812 85-85 0-43.457031-32.78125-79.402344-74.914062-84.40625zm0 0" fill="#f2f2f1" data-original="#c1aba5" style="" class=""/><path xmlns="http://www.w3.org/2000/svg" d="m170.5 47c-44.445312 0-82.894531 29.046875-95.585938 70.59375-42.132812 5.003906-74.914062 40.949219-74.914062 84.40625 0 46.867188 38.132812 85 85 85h171v-191.925781c-17.671875-29.144531-49.628906-48.074219-85.5-48.074219zm0 0" fill="#f2f2f1" data-original="#d0bfb5" style="" class=""/><path xmlns="http://www.w3.org/2000/svg" d="m60 407c-16.542969 0-30-13.457031-30-30s13.457031-30 30-30 30 13.457031 30 30h30c0-33.085938-26.914062-60-60-60s-60 26.914062-60 60 26.914062 60 60 60h196v-30zm0 0" fill="#48484a" data-original="#17bdcb" style="" class=""/><path xmlns="http://www.w3.org/2000/svg" d="m196 377c0 33.085938 26.914062 60 60 60l20-15-20-15c-16.542969 0-30-13.457031-30-30s13.457031-30 30-30l20-15-20-15c-33.085938 0-60 26.914062-60 60zm0 0" fill="#48484a" data-original="#1ddff0" style="" class=""/><path xmlns="http://www.w3.org/2000/svg" d="m256 317v30c16.542969 0 30 13.457031 30 30h30c0-33.085938-26.914062-60-60-60zm0 0" fill="#48484a" data-original="#4be3f0" style="" class=""/><path xmlns="http://www.w3.org/2000/svg" d="m256 407h256v30h-256zm0 0" fill="#48484a" data-original="#61e9f5" style="" class=""/></g></svg>
